<?xml version="1.0" encoding="UTF-8"?>
<svg xmlns="http://www.w3.org/2000/svg" width="127.414mm" height="32mm" version="1.1" viewBox="0 0 361.174 90.709">
  <!-- Generator: Adobe Illustrator 29.5.1, SVG Export Plug-In . SVG Version: 2.1.0 Build 141)  -->
  <g id="Schutzraum">
    <rect y="0" width="361.174" height="90.709" fill="none"/>
    <rect y="0" width="361.174" height="90.709" fill="none"/>
    <rect y="0" width="361.174" height="90.709" fill="none"/>
    <rect y="0" width="361.174" height="90.709" fill="none"/>
  </g>
  <g id="Logo">
    <g>
      <path d="M286.356,67.852h4.345v-9.113h2.323c1.75,0,2.505,1.026,2.566,2.716l.12,4.134c.03.844.121,1.659.543,2.263h4.707v-.181c-.814-.423-.935-1.599-.965-3.862-.06-4.557-.513-6.187-3.47-6.579v-.06c2.444-.513,3.591-2.444,3.591-5.311,0-3.682-2.173-5.553-5.734-5.553h-8.026v21.546ZM290.701,49.505h2.052c1.961,0,3.018.996,3.018,2.988,0,2.323-1.178,3.228-3.26,3.228h-1.81v-6.216Z" fill="#8ebae5"/>
      <path d="M222.293,46.307v15.027c0,5.764,3.349,6.941,6.88,6.941s6.88-1.448,6.88-6.941v-15.027h-4.345v15.027c0,2.143-.513,3.742-2.535,3.742s-2.535-1.599-2.535-3.742v-15.027h-4.345Z" fill="#8ebae5"/>
    </g>
    <polygon points="237.117 46.307 237.117 67.852 241.1 67.852 241.1 52.765 241.16 52.765 246.471 67.852 251.42 67.852 251.42 46.307 247.437 46.307 247.437 61.063 247.377 61.063 242.126 46.307 237.117 46.307" fill="#8ebae5"/>
    <rect x="252.537" y="46.307" width="4.345" height="21.545" fill="#8ebae5"/>
    <polygon points="257.18 46.307 262.128 67.852 267.711 67.852 272.659 46.307 268.163 46.307 264.965 62.24 264.875 62.24 261.827 46.307 257.18 46.307" fill="#8ebae5"/>
    <polygon points="273.047 46.307 273.047 67.852 285.389 67.852 285.389 64.292 277.392 64.292 277.392 58.498 284.635 58.498 284.635 54.937 277.392 54.937 277.392 49.868 285.087 49.868 285.087 46.307 273.047 46.307" fill="#8ebae5"/>
    <path d="M300.477,61.123v.875c0,3.984,1.931,6.277,6.85,6.277,4.707,0,7.483-2.052,7.483-6.609,0-2.625-.845-4.284-4.104-5.703l-3.349-1.448c-1.841-.785-2.233-1.599-2.233-2.927,0-1.267.513-2.505,2.474-2.505,1.659,0,2.354,1.177,2.354,3.199h4.164v-.604c0-4.134-2.807-5.793-6.669-5.793-4.104,0-6.668,2.142-6.668,6.336,0,3.591,1.78,5.191,5.642,6.518,2.867.996,3.863,1.72,3.863,3.682,0,1.81-1.268,2.655-2.595,2.655-2.294,0-2.867-1.297-2.867-3.319v-.634h-4.345Z" fill="#8ebae5"/>
    <rect x="315.378" y="46.307" width="4.345" height="21.545" fill="#8ebae5"/>
    <polygon points="342.293 46.307 339.275 54.635 339.215 54.635 336.379 46.307 320.293 46.307 320.293 49.868 325 49.868 325 67.852 329.346 67.852 329.346 49.868 333.011 49.868 337.072 59.373 337.072 67.852 341.418 67.852 341.418 59.373 347.001 46.307 342.293 46.307" fill="#8ebae5"/>
    <g>
      <path d="M184.122,44.347h-7.2v-21.641h11.807c3.202-.001,5.963,2.072,6.864,4.82.834,2.546.121,5.312-1.761,7.281.25.678.494,1.209.726,1.818.523,1.205,1.001,2.41,1.524,3.6l1.713,4.122h-7.301s-.058-.174-.116-.247c-.29-.638-.552-1.321-.842-1.959l-1.756-4.166c-.697-1.684-1.394-3.275-2.09-4.958.869-.024,1.519.139,2.358-.247.59-.29,1.484-1.011,1.507-2.394-.023-.685-.213-1.204-.666-1.744-.455-.502-1.113-.874-1.97-.886,0,0-2.798-.001-2.797,0v16.601Z" fill="#00549f"/>
      <path d="M259.327,22.706v21.641h-7.2v-8.824h-5.041v8.824c-1.306,0-2.714-.014-4.02,0h-3.18v-16.633h-5.036v16.633h-7.2v-16.633h-5.079v16.633h-7.417c-1.292-3.12-2.656-6.27-3.919-9.376-.145-.653-.29-1.307-.479-1.945v11.321h-7.432c-1.473-3.425-2.888-6.782-4.357-10.258-.509-1.204-.926-2.184-1.452-3.436l-.072-.164-1.144-2.685-1.638-3.835c-.144-.435-.376-.828-.522-1.263h7.415c1.524,3.701,3.062,7.359,4.659,11.002l.044.087c-.058-.421-.19-.958-.262-1.364v-6.459c.014-1.031,0-2.207,0-3.266h7.431c.094.236.146.363.218.552.871,2.046,1.699,4.078,2.57,6.11l1.945,4.427c-.044-.465-.146-.914-.204-1.364v-9.725h29.131v7.809h5.041v-7.809h7.2Z" fill="#00549f"/>
    </g>
    <path d="M280.212,36.193l2.092-9.73h.06l2.092,9.73h-4.244ZM265.785,36.193l2.091-9.73h.06l2.092,9.73h-4.243ZM285.032,22.704h-5.396l-4.516,17.059-4.516-17.059h-5.396l-5.729,21.643h4.547l1-4.577h5.761l.999,4.577h6.668l1-4.577h5.76l1,4.577h4.547l-5.729-21.643Z" fill="#8ebae5"/>
    <path d="M303.761,30.089c0-3.138-.452-7.695-6.669-7.695-6.517,0-7.333,4.647-7.333,11.195s.816,11.195,7.333,11.195c5.703,0,6.85-4.013,6.85-8.66h-4.345c0,4.647-1.147,5.462-2.716,5.462-1.871,0-2.776-1.177-2.776-7.695,0-6.095.513-8.298,2.716-8.298,1.961,0,2.595,1.358,2.595,4.496h4.345Z" fill="#8ebae5"/>
    <polygon points="304.8 44.347 309.164 44.347 309.164 34.739 314.256 34.739 314.256 44.347 318.621 44.347 318.621 22.706 314.256 22.706 314.256 30.981 309.164 30.981 309.164 22.706 304.8 22.706 304.8 44.347" fill="#8ebae5"/>
    <polygon points="319.567 22.702 319.567 44.347 331.967 44.347 331.967 40.77 323.933 40.77 323.933 34.949 331.209 34.949 331.209 31.372 323.933 31.372 323.933 26.279 331.663 26.279 331.663 22.702 319.567 22.702" fill="#8ebae5"/>
    <polygon points="332.615 22.706 332.615 44.347 336.616 44.347 336.616 29.192 336.676 29.192 342.011 44.347 346.982 44.347 346.982 22.706 342.981 22.706 342.981 37.527 342.92 37.527 337.646 22.706 332.615 22.706" fill="#8ebae5"/>
    <rect x="162.248" y="22.677" width="1" height="45.355" fill="#00549f"/>
    <path d="M42.119,65.469h17.947l22.023-40.252h-15.828l-10.999,19.829v-19.829h-14.102l-11.004,20.097v-20.097h-13.442v40.252h16.262l9.143-16.873v16.873ZM75.434,65.492h38.145v-14.102h-14.615l14.256-26.173h-28.235l-7.999,14.619h12.623l-14.175,25.656ZM116.12,65.492h20.453l7.693-13.9h-14.622v-26.375h-13.524v40.275Z" fill="#fff"/>
    <path d="M103.24,48.85h10.339v-18.984l-10.339,18.984ZM42.119,65.468h17.947l22.023-40.251h-15.828l-10.999,19.829v-19.829h-14.102l-11.004,20.097v-20.097h-13.442v40.251h16.262l9.143-16.872v16.872ZM75.435,65.492h38.144v-14.102h-14.615l14.256-26.173h-28.235l-7.999,14.619h12.623l-14.174,25.656ZM116.12,65.492h20.453l7.693-13.9h-14.622v-26.375h-13.524v40.275ZM138.07,68.032h-66.94l14.174-25.655h-9.708l-14.024,25.632h-21.993v-9.395l-5.09,9.395H14.174V22.677h18.522v12.709l6.959-12.709h18.148v12.553l6.962-12.553h67.42v26.375h16.39l-10.505,18.979Z" fill="#00549f"/>
  </g>
</svg>